<svg xmlns="http://www.w3.org/2000/svg" viewBox="0 0 64 64">
  <rect width="64" height="64" rx="12" fill="#FAF6EF"/>
  <path d="M13 52C26 49 35 40 38 26C40 17 35 10 26 8H13V52Z" fill="none" stroke="#1F4D37" stroke-width="5" stroke-linejoin="round"/>
  <path d="M27 52C43 51 55 40 57 24C45 25 36 30 30 38C27 42 26 47 27 52Z" fill="#1F4D37" opacity=".16"/>
  <path d="M27 52C43 51 55 40 57 24C45 25 36 30 30 38C27 42 26 47 27 52Z" fill="none" stroke="#1F4D37" stroke-width="5" stroke-linejoin="round"/>
  <path d="M20 42C28 41 37 34 43 21" fill="none" stroke="#1F4D37" stroke-width="3"/>
  <path d="M44 43L49 48L58 36" fill="none" stroke="#B23A2E" stroke-width="5" stroke-linecap="round" stroke-linejoin="round"/>
</svg>
